# xmcd
#
# Track frame offsets:
#	150
#	16161
#	30632
#	45113
#	59116
#	72322
#	89910
#	108762
#	124683
#	141131
#	153757
#	170697
#	183144
#
# Disc length: 2668 seconds
#
# Revision: 1
# Processed by: cddbd v1.5.2PL0 Copyright (c) Steve Scherf et al.
# Submitted via: audiograbber 1.83.01
#
DISCID=a70a6a0d
DTITLE=Justin Moore - Late Nights and Longnecks
DYEAR=2019
DGENRE=Country
TTITLE0=Why We Drink
TTITLE1=That's My Boy
TTITLE2=That Ones That Didn't Make It Back Home
TTITLE3=Jesus and Jack Daniels
TTITLE4=Airport Bar
TTITLE5=Small Town Street Cred
TTITLE6=Never Gonna Drink Again
TTITLE7=On The Rocks
TTITLE8=Someday I Gotta Quit
TTITLE9=Good Times Don't
TTITLE10=Selfish Man
TTITLE11=She's Got Lovin' On Her Mind
TTITLE12=High On Life
EXTD=
EXTT0=
EXTT1=
EXTT2=
EXTT3=
EXTT4=
EXTT5=
EXTT6=
EXTT7=
EXTT8=
EXTT9=
EXTT10=
EXTT11=
EXTT12=
PLAYORDER=
